<svg xmlns="http://www.w3.org/2000/svg" viewBox="0 0 64 64" width="64" height="64">
  <rect width="64" height="64" rx="14" fill="#F7931A"/>
  <path d="M42.5 28.3c.6-4-2.4-6.1-6.6-7.5l1.4-5.4-3.3-.8-1.3 5.3c-.9-.2-1.8-.4-2.6-.6l1.3-5.3-3.3-.8-1.4 5.4c-.7-.2-1.4-.3-2-.5l-4.5-1.1-.9 3.5s2.4.6 2.4.6c1.3.3 1.6 1.2 1.5 1.9l-1.6 6.2c.1 0 .2.1.4.1l-.4-.1-2.2 8.7c-.2.4-.6 1-1.6.8 0 0-2.4-.6-2.4-.6l-1.6 3.8 4.3 1.1c.8.2 1.6.4 2.3.6l-1.4 5.5 3.3.8 1.4-5.4c.9.2 1.8.5 2.6.7l-1.3 5.4 3.3.8 1.4-5.5c5.6 1.1 9.8.6 11.6-4.5 1.4-4.1-.1-6.5-3.1-8 2.2-.5 3.8-1.9 4.3-4.9zm-7.6 10.5c-1 4.1-7.9 1.9-10.2 1.3l1.8-7.2c2.3.6 9.5 1.7 8.4 5.9zm1-10.6c-.9 3.7-6.7 1.8-8.5 1.4l1.6-6.5c1.9.5 7.9 1.4 6.9 5.1z" fill="#fff"/>
</svg>
